<svg width="48" height="48" viewBox="0 0 48 48" fill="none" xmlns="http://www.w3.org/2000/svg">
<g id="Frame">
<path id="Vector" d="M32 37H4V31.3986C9.03346 28.5964 14.8303 27 21 27C23.0458 27 25.0504 27.1756 27 27.5124" stroke="#0F1249" stroke-width="2.2"/>
<path id="Vector_2" d="M32 30V29C32 25.6862 34.6862 23 38 23C41.3138 23 44 25.6862 44 29V31L38 35V38.5" stroke="#FCC841" stroke-width="2.2"/>
<path id="Vector_3" d="M38 41V44" stroke="#FCC841" stroke-width="2.2"/>
<path id="Vector_4" d="M21.5 21C26.1944 21 30 17.1944 30 12.5C30 7.80558 26.1944 4 21.5 4C16.8056 4 13 7.80558 13 12.5C13 17.1944 16.8056 21 21.5 21Z" stroke="#0F1249" stroke-width="2.2"/>
</g>
</svg>
