<svg width="48" height="48" viewBox="0 0 48 48" fill="none" xmlns="http://www.w3.org/2000/svg">
<g id="Frame">
<path id="Vector" d="M5 4V34L24 44L43 34V4H5Z" stroke="#0F1249" stroke-width="2.2"/>
<path id="Vector_2" d="M24 15V10" stroke="#FCC841" stroke-width="2.2"/>
<path id="Vector_3" d="M24 31V36" stroke="#FCC841" stroke-width="2.2"/>
<path id="Vector_4" d="M18 26.9986V28.6666C18 29.9554 19.1753 31 20.625 31H27.375C28.8248 31 30 29.9564 30 28.6678V25.5276C30 24.4906 29.23 23.5782 28.11 23.2878L19.89 21.1566C18.77 20.8662 18 19.9538 18 18.9168L18 17.3332C18 16.0445 19.1752 15 20.625 15H27.375C28.8246 15 30 16.0447 30 17.3333V19.0022" stroke="#FCC841" stroke-width="2.2"/>
</g>
</svg>
